<svg width="219" height="38" viewBox="0 0 219 38" fill="none" xmlns="http://www.w3.org/2000/svg">
<g filter="url(#filter0_dd_13001_399)">
<path d="M15.6792 1.79492H35.0743L20.815 22.4116H1.41992L15.6792 1.79492Z" fill="#007AFF"/>
<path d="M16.5288 24.3222L11.0059 32.3076H31.3209L45.5802 11.6909H30.5864L21.8501 24.3222H16.5288Z" fill="#312ECB"/>
<!-- <rect x="3.1" y="2.1" width="31.8" height="31.8" rx="7.9" fill="white"/>
<rect x="3.1" y="2.1" width="31.8" height="31.8" rx="7.9" fill="url(#paint0_linear_13001_399)"/>
<rect x="3.1" y="2.1" width="31.8" height="31.8" rx="7.9" stroke="#D0D5DD" stroke-width="0.2"/> -->
<!-- <path d="M18.3546 13.1828C22.7105 11.4504 27.4742 12.8185 29.6373 14.9133C30.106 15.3671 30.5041 15.8275 30.845 16.2852C31.0394 15.2107 31.0552 14.1405 30.8681 13.1055C30.1847 9.32649 26.6195 7.18561 23.4233 8.29149C20.2415 9.3924 19.0005 11.5321 19.0005 11.5321C19.0005 11.5321 17.7595 9.3924 14.5777 8.29149C11.3812 7.18561 7.81603 9.32672 7.1328 13.1055C6.62842 15.8944 7.58356 18.9392 9.61033 21.6298C10.0372 21.7732 10.4847 21.8809 10.9586 21.9431C13.7978 22.3163 14.8184 21.557 16.0178 21.0486C16.8142 20.7113 17.4134 21.0942 17.3843 21.3626C17.3392 21.7786 15.7693 22.4895 16.106 22.6388C17.4351 23.2285 19.0718 23.2334 20.3053 22.18C21.838 20.8712 22.4114 21.7659 22.4114 21.7659C22.4114 21.7659 21.6502 23.7076 19.3581 24.6717C17.4457 25.4761 15.4419 25.6743 13.6107 25.4683C15.19 26.5846 17.0035 27.5204 19.0005 28.1883C24.7099 26.2784 28.9276 22.1871 30.4145 17.9096C29.4072 16.9157 28.1716 16.2996 26.6988 16.0763C23.8674 15.6471 22.8322 16.3863 21.6228 16.8708C20.8198 17.1926 20.2285 16.7978 20.263 16.5299C20.3161 16.1148 21.8999 15.4351 21.5661 15.279C20.249 14.6633 18.6125 14.626 17.3585 15.6549C15.8003 16.9332 15.2446 16.0274 15.2446 16.0274C15.2446 16.0274 16.0438 14.1015 18.3546 13.1828ZM17.2709 18.5052H18.3709V17.4052H19.6296V18.5052H20.7296V19.7639H19.6296V20.8639H18.3709V19.7639H17.2709V18.5052Z" fill="url(#paint1_linear_13001_399)"/>
<path d="M17.2709 18.5052H18.3709V17.4052H19.6296V18.5052H20.7295V19.7639H19.6378C21.2597 20.5834 24.2383 21.8027 27.8177 22.3451C28.9956 20.9517 29.8813 19.4428 30.4143 17.9096C29.4069 16.9157 28.1713 16.2996 26.6986 16.0763C23.8672 15.647 22.8319 16.3863 21.6226 16.8708C20.8196 17.1926 20.2282 16.7978 20.2627 16.5299C20.3159 16.1148 21.8997 15.4351 21.5659 15.279C20.2488 14.6633 18.6123 14.626 17.3583 15.6548C15.8 16.9332 15.2443 16.0274 15.2443 16.0274C15.2443 16.0274 16.0438 14.1013 18.3543 13.1823C22.7102 11.4499 27.4739 12.818 29.637 14.9128C30.1057 15.3666 30.5038 15.8271 30.8447 16.2847C31.0392 15.2102 31.055 14.14 30.8679 13.105C30.1844 9.326 26.6192 7.18512 23.423 8.291C20.2412 9.39191 19.0002 11.5316 19.0002 11.5316C19.0002 11.5316 17.7592 9.39191 14.5774 8.291C12.7519 7.65927 10.8067 8.0883 9.34619 9.27521C10.0323 10.7442 10.836 12.1168 13.1254 14.8773C14.9868 17.1222 17.2709 18.5052 17.2709 18.5052Z" fill="url(#paint2_linear_13001_399)"/> -->
<path opacity="0.31" d="M27.277 9.64954C24.2712 8.13944 21.169 10.4892 20.1851 11.7299C21.882 11.3725 23.3668 11.1892 25.2457 11.5839C28.0252 12.1679 29.0654 13.1715 30.3064 14.6542C30.0871 11.9069 28.3519 10.1896 27.277 9.64954Z" fill="url(#paint3_linear_13001_399)"/>
</g>
<path d="M46.728 28V10.12H49.272L59.112 23.368L57.792 23.632V10.12H61.056V28H58.488L48.792 14.656L49.992 14.392V28H46.728ZM64.2531 28V14.944H67.3971V28H64.2531ZM64.2531 13.48V10.12H67.3971V13.48H64.2531ZM76.5879 28.288C75.2919 28.288 74.1239 27.992 73.0839 27.4C72.0599 26.792 71.2519 25.976 70.6599 24.952C70.0679 23.912 69.7719 22.744 69.7719 21.448C69.7719 20.152 70.0679 18.992 70.6599 17.968C71.2519 16.944 72.0599 16.136 73.0839 15.544C74.1239 14.952 75.2919 14.656 76.5879 14.656C77.5159 14.656 78.3799 14.824 79.1799 15.16C79.9799 15.48 80.6679 15.928 81.2439 16.504C81.8359 17.064 82.2599 17.736 82.5159 18.52L79.7559 19.72C79.5159 19.064 79.1079 18.536 78.5319 18.136C77.9719 17.736 77.3239 17.536 76.5879 17.536C75.8999 17.536 75.2839 17.704 74.7399 18.04C74.2119 18.376 73.7959 18.84 73.4919 19.432C73.1879 20.024 73.0359 20.704 73.0359 21.472C73.0359 22.24 73.1879 22.92 73.4919 23.512C73.7959 24.104 74.2119 24.568 74.7399 24.904C75.2839 25.24 75.8999 25.408 76.5879 25.408C77.3399 25.408 77.9959 25.208 78.5559 24.808C79.1159 24.408 79.5159 23.872 79.7559 23.2L82.5159 24.448C82.2599 25.184 81.8439 25.848 81.2679 26.44C80.6919 27.016 80.0039 27.472 79.2039 27.808C78.4039 28.128 77.5319 28.288 76.5879 28.288ZM88.8146 28.288C87.9026 28.288 87.1106 28.136 86.4386 27.832C85.7666 27.528 85.2466 27.096 84.8786 26.536C84.5106 25.96 84.3266 25.296 84.3266 24.544C84.3266 23.824 84.4866 23.184 84.8066 22.624C85.1266 22.048 85.6226 21.568 86.2946 21.184C86.9666 20.8 87.8146 20.528 88.8386 20.368L93.1106 19.672V22.072L89.4386 22.696C88.8146 22.808 88.3506 23.008 88.0466 23.296C87.7426 23.584 87.5906 23.96 87.5906 24.424C87.5906 24.872 87.7586 25.232 88.0946 25.504C88.4466 25.76 88.8786 25.888 89.3906 25.888C90.0466 25.888 90.6226 25.752 91.1186 25.48C91.6306 25.192 92.0226 24.8 92.2946 24.304C92.5826 23.808 92.7266 23.264 92.7266 22.672V19.312C92.7266 18.752 92.5026 18.288 92.0546 17.92C91.6226 17.536 91.0466 17.344 90.3266 17.344C89.6546 17.344 89.0546 17.528 88.5266 17.896C88.0146 18.248 87.6386 18.72 87.3986 19.312L84.8306 18.064C85.0866 17.376 85.4866 16.784 86.0306 16.288C86.5906 15.776 87.2466 15.376 87.9986 15.088C88.7506 14.8 89.5666 14.656 90.4466 14.656C91.5186 14.656 92.4626 14.856 93.2786 15.256C94.0946 15.64 94.7266 16.184 95.1746 16.888C95.6386 17.576 95.8706 18.384 95.8706 19.312V28H92.8946V25.768L93.5666 25.72C93.2306 26.28 92.8306 26.752 92.3666 27.136C91.9026 27.504 91.3746 27.792 90.7826 28C90.1906 28.192 89.5346 28.288 88.8146 28.288ZM98.7765 28V14.944H101.921V28H98.7765ZM98.7765 13.48V10.12H101.921V13.48H98.7765ZM109.791 28.288C108.399 28.288 107.183 27.96 106.143 27.304C105.119 26.632 104.415 25.728 104.031 24.592L106.383 23.464C106.719 24.2 107.183 24.776 107.775 25.192C108.383 25.608 109.055 25.816 109.791 25.816C110.367 25.816 110.823 25.688 111.159 25.432C111.495 25.176 111.663 24.84 111.663 24.424C111.663 24.168 111.591 23.96 111.447 23.8C111.319 23.624 111.135 23.48 110.895 23.368C110.671 23.24 110.423 23.136 110.151 23.056L108.015 22.456C106.911 22.136 106.071 21.648 105.495 20.992C104.935 20.336 104.655 19.56 104.655 18.664C104.655 17.864 104.855 17.168 105.255 16.576C105.671 15.968 106.239 15.496 106.959 15.16C107.695 14.824 108.535 14.656 109.479 14.656C110.711 14.656 111.799 14.952 112.743 15.544C113.687 16.136 114.359 16.968 114.759 18.04L112.359 19.168C112.135 18.576 111.759 18.104 111.231 17.752C110.703 17.4 110.111 17.224 109.455 17.224C108.927 17.224 108.511 17.344 108.207 17.584C107.903 17.824 107.751 18.136 107.751 18.52C107.751 18.76 107.815 18.968 107.943 19.144C108.071 19.32 108.247 19.464 108.471 19.576C108.711 19.688 108.983 19.792 109.287 19.888L111.375 20.512C112.447 20.832 113.271 21.312 113.847 21.952C114.439 22.592 114.735 23.376 114.735 24.304C114.735 25.088 114.527 25.784 114.111 26.392C113.695 26.984 113.119 27.448 112.383 27.784C111.647 28.12 110.783 28.288 109.791 28.288ZM122.12 28.288C120.728 28.288 119.512 27.96 118.472 27.304C117.448 26.632 116.744 25.728 116.36 24.592L118.712 23.464C119.048 24.2 119.512 24.776 120.104 25.192C120.712 25.608 121.384 25.816 122.12 25.816C122.696 25.816 123.152 25.688 123.488 25.432C123.824 25.176 123.992 24.84 123.992 24.424C123.992 24.168 123.92 23.96 123.776 23.8C123.648 23.624 123.464 23.48 123.224 23.368C123 23.24 122.752 23.136 122.48 23.056L120.344 22.456C119.24 22.136 118.4 21.648 117.824 20.992C117.264 20.336 116.984 19.56 116.984 18.664C116.984 17.864 117.184 17.168 117.584 16.576C118 15.968 118.568 15.496 119.288 15.16C120.024 14.824 120.864 14.656 121.808 14.656C123.04 14.656 124.128 14.952 125.072 15.544C126.016 16.136 126.688 16.968 127.088 18.04L124.688 19.168C124.464 18.576 124.088 18.104 123.56 17.752C123.032 17.4 122.44 17.224 121.784 17.224C121.256 17.224 120.84 17.344 120.536 17.584C120.232 17.824 120.08 18.136 120.08 18.52C120.08 18.76 120.144 18.968 120.272 19.144C120.4 19.32 120.576 19.464 120.8 19.576C121.04 19.688 121.312 19.792 121.616 19.888L123.704 20.512C124.776 20.832 125.6 21.312 126.176 21.952C126.768 22.592 127.064 23.376 127.064 24.304C127.064 25.088 126.856 25.784 126.44 26.392C126.024 26.984 125.448 27.448 124.712 27.784C123.976 28.12 123.112 28.288 122.12 28.288ZM135.672 28.288C134.328 28.288 133.152 27.984 132.144 27.376C131.136 26.768 130.352 25.944 129.792 24.904C129.232 23.864 128.952 22.712 128.952 21.448C128.952 20.136 129.232 18.976 129.792 17.968C130.368 16.944 131.144 16.136 132.12 15.544C133.112 14.952 134.216 14.656 135.432 14.656C136.456 14.656 137.352 14.824 138.12 15.16C138.904 15.496 139.568 15.96 140.112 16.552C140.656 17.144 141.072 17.824 141.36 18.592C141.648 19.344 141.792 20.16 141.792 21.04C141.792 21.264 141.776 21.496 141.744 21.736C141.728 21.976 141.688 22.184 141.624 22.36H131.544V19.96H139.848L138.36 21.088C138.504 20.352 138.464 19.696 138.24 19.12C138.032 18.544 137.68 18.088 137.184 17.752C136.704 17.416 136.12 17.248 135.432 17.248C134.776 17.248 134.192 17.416 133.68 17.752C133.168 18.072 132.776 18.552 132.504 19.192C132.248 19.816 132.152 20.576 132.216 21.472C132.152 22.272 132.256 22.984 132.528 23.608C132.816 24.216 133.232 24.688 133.776 25.024C134.336 25.36 134.976 25.528 135.696 25.528C136.416 25.528 137.024 25.376 137.52 25.072C138.032 24.768 138.432 24.36 138.72 23.848L141.264 25.096C141.008 25.72 140.608 26.272 140.064 26.752C139.52 27.232 138.872 27.608 138.12 27.88C137.384 28.152 136.568 28.288 135.672 28.288ZM144.439 28V10.12H147.703V17.92H155.311V10.12H158.599V28H155.311V20.8H147.703V28H144.439ZM167.969 28.288C166.625 28.288 165.449 27.984 164.441 27.376C163.433 26.768 162.649 25.944 162.089 24.904C161.529 23.864 161.249 22.712 161.249 21.448C161.249 20.136 161.529 18.976 162.089 17.968C162.665 16.944 163.441 16.136 164.417 15.544C165.409 14.952 166.513 14.656 167.729 14.656C168.753 14.656 169.649 14.824 170.417 15.16C171.201 15.496 171.865 15.96 172.409 16.552C172.953 17.144 173.369 17.824 173.657 18.592C173.945 19.344 174.089 20.16 174.089 21.04C174.089 21.264 174.073 21.496 174.041 21.736C174.025 21.976 173.985 22.184 173.921 22.36H163.84V19.96H172.145L170.657 21.088C170.801 20.352 170.761 19.696 170.537 19.12C170.329 18.544 169.977 18.088 169.481 17.752C169.001 17.416 168.417 17.248 167.729 17.248C167.073 17.248 166.489 17.416 165.977 17.752C165.465 18.072 165.073 18.552 164.801 19.192C164.545 19.816 164.449 20.576 164.513 21.472C164.449 22.272 164.553 22.984 164.825 23.608C165.113 24.216 165.529 24.688 166.073 25.024C166.633 25.36 167.273 25.528 167.993 25.528C168.713 25.528 169.321 25.376 169.817 25.072C170.329 24.768 170.729 24.36 171.017 23.848L173.561 25.096C173.305 25.72 172.905 26.272 172.361 26.752C171.817 27.232 171.169 27.608 170.417 27.88C169.681 28.152 168.865 28.288 167.969 28.288ZM180.385 28.288C179.473 28.288 178.681 28.136 178.009 27.832C177.337 27.528 176.817 27.096 176.449 26.536C176.081 25.96 175.897 25.296 175.897 24.544C175.897 23.824 176.057 23.184 176.377 22.624C176.697 22.048 177.193 21.568 177.865 21.184C178.537 20.8 179.385 20.528 180.409 20.368L184.681 19.672V22.072L181.009 22.696C180.385 22.808 179.921 23.008 179.617 23.296C179.313 23.584 179.161 23.96 179.161 24.424C179.161 24.872 179.329 25.232 179.665 25.504C180.017 25.76 180.449 25.888 180.961 25.888C181.617 25.888 182.193 25.752 182.689 25.48C183.201 25.192 183.593 24.8 183.865 24.304C184.153 23.808 184.297 23.264 184.297 22.672V19.312C184.297 18.752 184.073 18.288 183.625 17.92C183.193 17.536 182.617 17.344 181.897 17.344C181.225 17.344 180.625 17.528 180.097 17.896C179.585 18.248 179.209 18.72 178.969 19.312L176.401 18.064C176.657 17.376 177.057 16.784 177.601 16.288C178.161 15.776 178.817 15.376 179.569 15.088C180.321 14.8 181.137 14.656 182.017 14.656C183.089 14.656 184.033 14.856 184.849 15.256C185.665 15.64 186.297 16.184 186.745 16.888C187.209 17.576 187.441 18.384 187.441 19.312V28H184.465V25.768L185.137 25.72C184.801 26.28 184.401 26.752 183.937 27.136C183.473 27.504 182.945 27.792 182.353 28C181.761 28.192 181.105 28.288 180.385 28.288ZM190.347 28V9.832H193.491V28H190.347ZM202.346 28.144C200.874 28.144 199.73 27.744 198.914 26.944C198.114 26.128 197.714 24.984 197.714 23.512V17.752H195.458V14.944H195.698C196.338 14.944 196.834 14.776 197.186 14.44C197.538 14.104 197.714 13.616 197.714 12.976V11.968H200.858V14.944H203.858V17.752H200.858V23.344C200.858 23.776 200.93 24.144 201.074 24.448C201.234 24.752 201.474 24.984 201.794 25.144C202.13 25.304 202.554 25.384 203.066 25.384C203.178 25.384 203.306 25.376 203.45 25.36C203.61 25.344 203.762 25.328 203.906 25.312V28C203.682 28.032 203.426 28.064 203.138 28.096C202.85 28.128 202.586 28.144 202.346 28.144ZM206.308 28V9.832H209.452V17.512L209.02 17.056C209.324 16.272 209.82 15.68 210.508 15.28C211.212 14.864 212.028 14.656 212.956 14.656C213.916 14.656 214.764 14.864 215.5 15.28C216.252 15.696 216.836 16.28 217.252 17.032C217.668 17.768 217.876 18.624 217.876 19.6V28H214.732V20.344C214.732 19.768 214.62 19.272 214.396 18.856C214.172 18.44 213.86 18.12 213.46 17.896C213.076 17.656 212.62 17.536 212.092 17.536C211.58 17.536 211.124 17.656 210.724 17.896C210.324 18.12 210.012 18.44 209.788 18.856C209.564 19.272 209.452 19.768 209.452 20.344V28H206.308Z" fill="white"/>
<defs>
<filter id="filter0_dd_13001_399" x="0" y="0" width="38" height="38" filterUnits="userSpaceOnUse" color-interpolation-filters="sRGB">
<feFlood flood-opacity="0" result="BackgroundImageFix"/>
<feColorMatrix in="SourceAlpha" type="matrix" values="0 0 0 0 0 0 0 0 0 0 0 0 0 0 0 0 0 0 127 0" result="hardAlpha"/>
<feOffset dy="1"/>
<feGaussianBlur stdDeviation="1"/>
<feColorMatrix type="matrix" values="0 0 0 0 0.0627451 0 0 0 0 0.0941176 0 0 0 0 0.156863 0 0 0 0.06 0"/>
<feBlend mode="normal" in2="BackgroundImageFix" result="effect1_dropShadow_13001_399"/>
<feColorMatrix in="SourceAlpha" type="matrix" values="0 0 0 0 0 0 0 0 0 0 0 0 0 0 0 0 0 0 127 0" result="hardAlpha"/>
<feOffset dy="1"/>
<feGaussianBlur stdDeviation="1.5"/>
<feColorMatrix type="matrix" values="0 0 0 0 0.0627451 0 0 0 0 0.0941176 0 0 0 0 0.156863 0 0 0 0.1 0"/>
<feBlend mode="normal" in2="effect1_dropShadow_13001_399" result="effect2_dropShadow_13001_399"/>
<feBlend mode="normal" in="SourceGraphic" in2="effect2_dropShadow_13001_399" result="shape"/>
</filter>
<linearGradient id="paint0_linear_13001_399" x1="19" y1="2" x2="19" y2="34" gradientUnits="userSpaceOnUse">
<stop stop-color="white"/>
<stop offset="1" stop-color="#D0D5DD"/>
</linearGradient>
<linearGradient id="paint1_linear_13001_399" x1="10.1989" y1="24.2137" x2="27.8347" y2="6.57791" gradientUnits="userSpaceOnUse">
<stop stop-color="#0076C1"/>
<stop offset="0.0737" stop-color="#0B82C6"/>
<stop offset="0.2766" stop-color="#269ED3"/>
<stop offset="0.4546" stop-color="#36AFDA"/>
<stop offset="0.587" stop-color="#3CB5DD"/>
</linearGradient>
<linearGradient id="paint2_linear_13001_399" x1="10.1388" y1="24.2537" x2="27.8274" y2="6.56509" gradientUnits="userSpaceOnUse">
<stop stop-color="#00A482"/>
<stop offset="1" stop-color="#79DD83"/>
</linearGradient>
<linearGradient id="paint3_linear_13001_399" x1="24.8608" y1="13.5073" x2="28.5288" y2="10.1132" gradientUnits="userSpaceOnUse">
<stop stop-color="#00A482"/>
<stop offset="1" stop-color="#79DD83"/>
</linearGradient>
</defs>
</svg>
